<svg width="40" height="40" viewBox="0 0 40 40" fill="none" xmlns="http://www.w3.org/2000/svg">
<path d="M15 25C16.4173 26.0505 18.1409 26.6667 20 26.6667C21.8591 26.6667 23.5827 26.0505 25 25" stroke="#FFD035" stroke-width="1.5" stroke-linecap="round"/>
<path d="M25 13.834C25.241 13.8341 25.5198 13.981 25.7617 14.3438C26.0014 14.7033 26.166 15.2286 26.166 15.834C26.166 16.4394 26.0014 16.9647 25.7617 17.3242C25.5198 17.687 25.241 17.8339 25 17.834C24.759 17.834 24.4793 17.6872 24.2373 17.3242C23.9976 16.9647 23.833 16.4394 23.833 15.834C23.833 15.2286 23.9976 14.7033 24.2373 14.3438C24.4793 13.9807 24.759 13.834 25 13.834Z" fill="#FFD035" stroke="#FFD035"/>
<path d="M15 13.834C15.241 13.8341 15.5198 13.981 15.7617 14.3438C16.0014 14.7033 16.166 15.2286 16.166 15.834C16.166 16.4394 16.0014 16.9647 15.7617 17.3242C15.5198 17.687 15.241 17.8339 15 17.834C14.759 17.834 14.4793 17.6872 14.2373 17.3242C13.9976 16.9647 13.833 16.4394 13.833 15.834C13.833 15.2286 13.9976 14.7033 14.2373 14.3438C14.4793 13.9807 14.759 13.834 15 13.834Z" fill="#FFD035" stroke="#FFD035"/>
<path d="M36.6663 32.8723V20.5016C36.6663 11.0202 29.2044 3.33398 19.9997 3.33398C10.7949 3.33398 3.33301 11.0202 3.33301 20.5016V32.8723C3.33301 35.0762 5.58464 36.5096 7.49834 35.524C9.0451 34.7274 10.8877 34.8455 12.3266 35.8336C13.9453 36.9452 16.0541 36.9452 17.6728 35.8336L18.2605 35.43C19.3137 34.7068 20.6857 34.7068 21.7388 35.43L22.3266 35.8336C23.9453 36.9452 26.0541 36.9452 27.6728 35.8336C29.1117 34.8455 30.9542 34.7274 32.501 35.524C34.4147 36.5096 36.6663 35.0762 36.6663 32.8723Z" stroke="#FFD035" stroke-width="1.5"/>
</svg>
