<svg width="167" height="28" viewBox="0 0 167 28" fill="none" xmlns="http://www.w3.org/2000/svg">
<path d="M14.52 17.776C14.52 18.544 14.328 19.248 13.944 19.888C13.56 20.528 13.048 21.04 12.408 21.424C11.768 21.808 11.064 22 10.296 22H4.536C3.768 22 3.05333 21.808 2.392 21.424C1.752 21.04 1.24 20.528 0.856 19.888C0.472 19.248 0.28 18.544 0.28 17.776V4.624C0.28 3.83467 0.472 3.12 0.856 2.48C1.24 1.84 1.752 1.328 2.392 0.943998C3.05333 0.559998 3.768 0.367998 4.536 0.367998H10.296C11.064 0.367998 11.768 0.559998 12.408 0.943998C13.048 1.328 13.56 1.84 13.944 2.48C14.328 3.12 14.52 3.83467 14.52 4.624V5.488C14.52 5.89333 14.3813 6.23467 14.104 6.512C13.8267 6.78933 13.4747 6.928 13.048 6.928H12.184C11.7787 6.928 11.4267 6.78933 11.128 6.512C10.8507 6.23467 10.712 5.89333 10.712 5.488V4.624C10.712 4.32533 10.5733 4.176 10.296 4.176H4.536C4.25867 4.176 4.12 4.32533 4.12 4.624V17.776C4.12 17.8827 4.16267 17.9893 4.248 18.096C4.33333 18.1813 4.42933 18.224 4.536 18.224H10.296C10.4027 18.224 10.4987 18.1813 10.584 18.096C10.6693 17.9893 10.712 17.8827 10.712 17.776V16.816C10.712 16.4107 10.8507 16.0693 11.128 15.792C11.4267 15.4933 11.7787 15.344 12.184 15.344H13.048C13.4747 15.344 13.8267 15.4933 14.104 15.792C14.3813 16.0693 14.52 16.4107 14.52 16.816V17.776ZM26.6278 7.792C26.6278 8.19733 26.4891 8.53867 26.2118 8.816C25.9344 9.09333 25.5931 9.232 25.1878 9.232H21.3798C21.1024 9.232 20.9638 9.38133 20.9638 9.68V20.528C20.9638 20.9333 20.8144 21.2853 20.5158 21.584C20.2384 21.8613 19.8971 22 19.4918 22H18.5958C18.1904 22 17.8491 21.8613 17.5718 21.584C17.2944 21.2853 17.1558 20.9333 17.1558 20.528V9.008C17.1558 8.34667 17.3158 7.74933 17.6358 7.216C17.9558 6.66133 18.3824 6.224 18.9158 5.904C19.4491 5.584 20.0464 5.424 20.7078 5.424H25.1878C25.5931 5.424 25.9344 5.57333 26.2118 5.872C26.4891 6.14933 26.6278 6.50133 26.6278 6.928V7.792ZM39.9375 7.28L35.5535 24.112C35.3188 24.9867 34.8388 25.7013 34.1135 26.256C33.3882 26.832 32.5562 27.12 31.6175 27.12H30.7215C30.3162 27.12 29.9642 26.9707 29.6655 26.672C29.3882 26.3947 29.2495 26.0533 29.2495 25.648V24.752C29.2495 24.3467 29.3882 24.0053 29.6655 23.728C29.9642 23.4507 30.3162 23.312 30.7215 23.312H31.6175C31.7455 23.312 31.8308 23.248 31.8735 23.12L32.5775 20.368C32.6415 20.1973 32.6415 20.016 32.5775 19.824L29.3135 7.28C29.1428 6.78933 29.2282 6.37333 29.5695 6.032C29.8468 5.62667 30.2202 5.424 30.6895 5.424H31.6175C31.9588 5.424 32.2575 5.53067 32.5135 5.744C32.7695 5.936 32.9402 6.20267 33.0255 6.544L34.4655 12.016C34.4868 12.1013 34.5402 12.144 34.6255 12.144C34.7108 12.144 34.7642 12.1013 34.7855 12.016L36.2255 6.544C36.3322 6.20267 36.5028 5.936 36.7375 5.744C36.9935 5.53067 37.2815 5.424 37.6015 5.424H38.5295C39.0202 5.424 39.4042 5.62667 39.6815 6.032C40.0015 6.37333 40.0868 6.78933 39.9375 7.28ZM54.1453 18.416C54.1453 19.4187 53.7933 20.272 53.0893 20.976C52.4066 21.6587 51.5746 22 50.5933 22H46.8173C46.7106 22 46.6039 22.0427 46.4973 22.128C46.4119 22.2133 46.3693 22.3093 46.3693 22.416V25.648C46.3693 26.0533 46.2306 26.3947 45.9533 26.672C45.6759 26.9707 45.3346 27.12 44.9293 27.12H44.0333C43.6279 27.12 43.2759 26.9707 42.9773 26.672C42.6999 26.3947 42.5613 26.0533 42.5613 25.648V9.008C42.5613 8.34667 42.7213 7.74933 43.0413 7.216C43.3826 6.66133 43.8199 6.224 44.3533 5.904C44.8866 5.584 45.4839 5.424 46.1453 5.424H50.5933C51.2546 5.424 51.8519 5.584 52.3853 5.904C52.9186 6.224 53.3453 6.66133 53.6653 7.216C53.9853 7.74933 54.1453 8.34667 54.1453 9.008V18.416ZM50.3693 17.808V9.68C50.3693 9.552 50.3159 9.44533 50.2093 9.36C50.1239 9.27467 50.0279 9.232 49.9213 9.232H46.8173C46.7106 9.232 46.6039 9.27467 46.4973 9.36C46.4119 9.44533 46.3693 9.552 46.3693 9.68V17.808C46.3693 17.9147 46.4119 18.0107 46.4973 18.096C46.6039 18.1813 46.7106 18.224 46.8173 18.224H49.9213C50.0279 18.224 50.1239 18.1813 50.2093 18.096C50.3159 18.0107 50.3693 17.9147 50.3693 17.808ZM66.2528 20.528C66.2528 20.9333 66.1141 21.2853 65.8368 21.584C65.5594 21.8613 65.2181 22 64.8128 22H60.3328C59.3514 22 58.5088 21.6587 57.8048 20.976C57.1221 20.272 56.7808 19.4187 56.7808 18.416V1.84C56.7808 1.41333 56.9194 1.06133 57.1968 0.783998C57.4741 0.506665 57.8154 0.367998 58.2208 0.367998H59.1168C59.5221 0.367998 59.8634 0.506665 60.1408 0.783998C60.4394 1.06133 60.5888 1.41333 60.5888 1.84V5.04C60.5888 5.296 60.7274 5.424 61.0048 5.424H64.8128C65.2181 5.424 65.5594 5.57333 65.8368 5.872C66.1141 6.14933 66.2528 6.50133 66.2528 6.928V7.792C66.2528 8.15467 66.1141 8.496 65.8368 8.816C65.5168 9.09333 65.1754 9.232 64.8128 9.232H61.0048C60.7274 9.232 60.5888 9.38133 60.5888 9.68V17.808C60.5888 18.0853 60.7274 18.224 61.0048 18.224H64.8128C65.2181 18.224 65.5594 18.3627 65.8368 18.64C66.1141 18.9173 66.2528 19.2693 66.2528 19.696V20.528ZM80.4265 18.416C80.4265 19.4187 80.0745 20.272 79.3705 20.976C78.6878 21.6587 77.8558 22 76.8745 22H72.4265C71.4452 22 70.6025 21.6587 69.8985 20.976C69.1945 20.272 68.8425 19.4187 68.8425 18.416V9.008C68.8425 8.34667 69.0025 7.74933 69.3225 7.216C69.6638 6.66133 70.1012 6.224 70.6345 5.904C71.1678 5.584 71.7652 5.424 72.4265 5.424H76.8745C77.5358 5.424 78.1332 5.584 78.6665 5.904C79.1998 6.224 79.6265 6.66133 79.9465 7.216C80.2665 7.74933 80.4265 8.34667 80.4265 9.008V18.416ZM76.6505 17.808V9.68C76.6505 9.552 76.5972 9.44533 76.4905 9.36C76.4052 9.27467 76.3092 9.232 76.2025 9.232H73.0985C72.9918 9.232 72.8852 9.27467 72.7785 9.36C72.6932 9.44533 72.6505 9.552 72.6505 9.68V17.808C72.6505 17.9147 72.6932 18.0107 72.7785 18.096C72.8852 18.1813 72.9918 18.224 73.0985 18.224H76.2025C76.3092 18.224 76.4052 18.1813 76.4905 18.096C76.5972 18.0107 76.6505 17.9147 76.6505 17.808ZM99.99 20.528C99.99 20.9333 99.8513 21.2853 99.574 21.584C99.2967 21.8613 98.9447 22 98.518 22H97.654C97.2487 22 96.8967 21.8613 96.598 21.584C96.3207 21.2853 96.182 20.9333 96.182 20.528V10.896C96.182 10.8107 96.1393 10.7573 96.054 10.736C95.99 10.7147 95.9367 10.736 95.894 10.8L92.822 17.136C92.758 17.3067 92.6193 17.456 92.406 17.584C92.1927 17.712 91.99 17.8187 91.798 17.904C91.6273 17.968 91.542 18 91.542 18C90.8807 18 90.4433 17.712 90.23 17.136L87.158 10.8C87.1367 10.736 87.0833 10.7147 86.998 10.736C86.9127 10.7573 86.87 10.8107 86.87 10.896V20.528C86.87 20.9333 86.7207 21.2853 86.422 21.584C86.1447 21.8613 85.8033 22 85.398 22H84.502C84.0967 22 83.7447 21.8613 83.446 21.584C83.1687 21.2853 83.03 20.9333 83.03 20.528V1.84C83.03 1.41333 83.1687 1.06133 83.446 0.783998C83.7447 0.506665 84.0967 0.367998 84.502 0.367998H85.43C86.0273 0.367998 86.4647 0.645332 86.742 1.2C86.8487 1.43467 87.062 1.89333 87.382 2.576C87.7233 3.23733 88.118 4.02667 88.566 4.944C89.014 5.86133 89.4727 6.832 89.942 7.856C90.4327 8.85867 90.902 9.81867 91.35 10.736C91.3927 10.8213 91.446 10.864 91.51 10.864C91.5953 10.864 91.6593 10.8213 91.702 10.736L96.278 1.2C96.5553 0.645332 97.0033 0.367998 97.622 0.367998H98.518C98.9447 0.367998 99.2967 0.506665 99.574 0.783998C99.8513 1.06133 99.99 1.41333 99.99 1.84V20.528ZM114.177 18.416C114.177 19.4187 113.825 20.272 113.121 20.976C112.438 21.6587 111.606 22 110.625 22H106.177C105.195 22 104.353 21.6587 103.649 20.976C102.945 20.272 102.593 19.4187 102.593 18.416V14.928C102.593 14.2667 102.753 13.68 103.073 13.168C103.414 12.6347 103.851 12.208 104.385 11.888C104.918 11.568 105.515 11.408 106.177 11.408H109.953C110.059 11.408 110.155 11.3653 110.241 11.28C110.347 11.1947 110.401 11.088 110.401 10.96V9.68C110.401 9.552 110.347 9.44533 110.241 9.36C110.155 9.27467 110.059 9.232 109.953 9.232H106.177C105.771 9.232 105.419 9.09333 105.121 8.816C104.843 8.53867 104.705 8.19733 104.705 7.792V6.928C104.705 6.50133 104.843 6.14933 105.121 5.872C105.419 5.57333 105.771 5.424 106.177 5.424H110.625C111.286 5.424 111.883 5.584 112.417 5.904C112.95 6.224 113.377 6.66133 113.697 7.216C114.017 7.74933 114.177 8.34667 114.177 9.008V18.416ZM110.401 17.808V15.6C110.401 15.4933 110.347 15.3973 110.241 15.312C110.155 15.2267 110.059 15.184 109.953 15.184H106.849C106.742 15.184 106.635 15.2267 106.529 15.312C106.443 15.3973 106.401 15.4933 106.401 15.6V17.808C106.401 17.9147 106.443 18.0107 106.529 18.096C106.635 18.1813 106.742 18.224 106.849 18.224H109.953C110.059 18.224 110.155 18.1813 110.241 18.096C110.347 18.0107 110.401 17.9147 110.401 17.808ZM126.284 7.792C126.284 8.19733 126.145 8.53867 125.868 8.816C125.591 9.09333 125.249 9.232 124.844 9.232H121.036C120.759 9.232 120.62 9.38133 120.62 9.68V20.528C120.62 20.9333 120.471 21.2853 120.172 21.584C119.895 21.8613 119.553 22 119.148 22H118.252C117.847 22 117.505 21.8613 117.228 21.584C116.951 21.2853 116.812 20.9333 116.812 20.528V9.008C116.812 8.34667 116.972 7.74933 117.292 7.216C117.612 6.66133 118.039 6.224 118.572 5.904C119.105 5.584 119.703 5.424 120.364 5.424H124.844C125.249 5.424 125.591 5.57333 125.868 5.872C126.145 6.14933 126.284 6.50133 126.284 6.928V7.792ZM140.33 21.104C140.095 21.7013 139.658 22 139.018 22H137.834C137.407 22 137.034 21.84 136.714 21.52L132.97 17.392C132.948 17.3493 132.895 17.3387 132.81 17.36C132.746 17.3813 132.714 17.4347 132.714 17.52V20.528C132.714 20.9333 132.564 21.2853 132.266 21.584C131.988 21.8613 131.647 22 131.242 22H130.346C129.94 22 129.588 21.8613 129.29 21.584C129.012 21.2853 128.874 20.9333 128.874 20.528V1.84C128.874 1.41333 129.012 1.06133 129.29 0.783998C129.588 0.506665 129.94 0.367998 130.346 0.367998H131.242C131.647 0.367998 131.988 0.506665 132.266 0.783998C132.564 1.06133 132.714 1.41333 132.714 1.84V9.936C132.714 10 132.746 10.0533 132.81 10.096C132.895 10.1173 132.948 10.096 132.97 10.032L136.362 6.352C136.639 6.032 136.991 5.872 137.418 5.872H138.602C139.22 5.872 139.668 6.17067 139.946 6.768C140.052 7.024 140.084 7.30133 140.042 7.6C139.999 7.87733 139.882 8.112 139.69 8.304L135.05 13.424C134.964 13.5093 134.922 13.616 134.922 13.744C134.922 13.8507 134.964 13.936 135.05 14L140.074 19.536C140.266 19.7493 140.383 20.0053 140.426 20.304C140.49 20.5813 140.458 20.848 140.33 21.104ZM154.333 12.496C154.333 13.136 154.173 13.7333 153.853 14.288C153.533 14.8213 153.106 15.2587 152.573 15.6C152.039 15.92 151.442 16.08 150.781 16.08H147.005C146.898 16.08 146.791 16.1227 146.685 16.208C146.599 16.272 146.557 16.3573 146.557 16.464V17.808C146.557 17.9147 146.599 18.0107 146.685 18.096C146.791 18.1813 146.898 18.224 147.005 18.224H150.781C151.186 18.224 151.527 18.3627 151.805 18.64C152.103 18.9173 152.253 19.2693 152.253 19.696V20.528C152.253 20.9333 152.103 21.2853 151.805 21.584C151.527 21.8613 151.186 22 150.781 22H146.333C145.351 22 144.509 21.6587 143.805 20.976C143.101 20.272 142.749 19.4187 142.749 18.416V9.008C142.749 8.34667 142.909 7.74933 143.229 7.216C143.57 6.68267 144.007 6.256 144.541 5.936C145.074 5.59467 145.671 5.424 146.333 5.424H150.781C151.442 5.424 152.039 5.59467 152.573 5.936C153.106 6.256 153.533 6.68267 153.853 7.216C154.173 7.74933 154.333 8.34667 154.333 9.008V12.496ZM150.557 11.856V9.68C150.557 9.552 150.503 9.44533 150.397 9.36C150.311 9.27467 150.215 9.232 150.109 9.232H147.005C146.898 9.232 146.791 9.27467 146.685 9.36C146.599 9.44533 146.557 9.552 146.557 9.68V11.856C146.557 11.9413 146.599 12.0267 146.685 12.112C146.791 12.1973 146.898 12.24 147.005 12.24H150.109C150.215 12.24 150.311 12.1973 150.397 12.112C150.503 12.0267 150.557 11.9413 150.557 11.856ZM166.44 20.528C166.44 20.9333 166.302 21.2853 166.024 21.584C165.747 21.8613 165.406 22 165 22H160.52C159.539 22 158.696 21.6587 157.992 20.976C157.31 20.272 156.968 19.4187 156.968 18.416V1.84C156.968 1.41333 157.107 1.06133 157.384 0.783998C157.662 0.506665 158.003 0.367998 158.408 0.367998H159.304C159.71 0.367998 160.051 0.506665 160.328 0.783998C160.627 1.06133 160.776 1.41333 160.776 1.84V5.04C160.776 5.296 160.915 5.424 161.192 5.424H165C165.406 5.424 165.747 5.57333 166.024 5.872C166.302 6.14933 166.44 6.50133 166.44 6.928V7.792C166.44 8.15467 166.302 8.496 166.024 8.816C165.704 9.09333 165.363 9.232 165 9.232H161.192C160.915 9.232 160.776 9.38133 160.776 9.68V17.808C160.776 18.0853 160.915 18.224 161.192 18.224H165C165.406 18.224 165.747 18.3627 166.024 18.64C166.302 18.9173 166.44 19.2693 166.44 19.696V20.528Z" fill="white"/>
</svg>
